<?xml version="1.0"?>
<svg xmlns="http://www.w3.org/2000/svg" xml:space="preserve" width="295.0" height="313.0">
  <line x1="183.0" y1="34.0" x2="85.0" y2="39.0" style="stroke:black;stroke-width:1;"/>
  <line x1="204.0" y1="30.0" x2="85.0" y2="39.0" style="stroke:black;stroke-width:1;"/>
  <line x1="183.0" y1="34.0" x2="204.0" y2="30.0" style="stroke:black;stroke-width:1;"/>
  <line x1="183.0" y1="34.0" x2="107.0" y2="40.0" style="stroke:black;stroke-width:1;"/>
  <line x1="85.0" y1="39.0" x2="107.0" y2="40.0" style="stroke:black;stroke-width:1;"/>
  <line x1="183.0" y1="34.0" x2="85.0" y2="39.0" style="stroke:black;stroke-width:1;"/>
  <line x1="183.0" y1="34.0" x2="127.0" y2="47.0" style="stroke:black;stroke-width:1;"/>
  <line x1="107.0" y1="40.0" x2="127.0" y2="47.0" style="stroke:black;stroke-width:1;"/>
  <line x1="183.0" y1="34.0" x2="107.0" y2="40.0" style="stroke:black;stroke-width:1;"/>
  <line x1="165.0" y1="44.0" x2="127.0" y2="47.0" style="stroke:black;stroke-width:1;"/>
  <line x1="183.0" y1="34.0" x2="127.0" y2="47.0" style="stroke:black;stroke-width:1;"/>
  <line x1="165.0" y1="44.0" x2="183.0" y2="34.0" style="stroke:black;stroke-width:1;"/>
  <line x1="204.0" y1="66.0" x2="183.0" y2="34.0" style="stroke:black;stroke-width:1;"/>
  <line x1="204.0" y1="30.0" x2="183.0" y2="34.0" style="stroke:black;stroke-width:1;"/>
  <line x1="204.0" y1="66.0" x2="204.0" y2="30.0" style="stroke:black;stroke-width:1;"/>
  <line x1="224.0" y1="33.0" x2="204.0" y2="66.0" style="stroke:black;stroke-width:1;"/>
  <line x1="204.0" y1="30.0" x2="204.0" y2="66.0" style="stroke:black;stroke-width:1;"/>
  <line x1="224.0" y1="33.0" x2="204.0" y2="30.0" style="stroke:black;stroke-width:1;"/>
  <line x1="204.0" y1="66.0" x2="189.0" y2="67.0" style="stroke:black;stroke-width:1;"/>
  <line x1="183.0" y1="34.0" x2="189.0" y2="67.0" style="stroke:black;stroke-width:1;"/>
  <line x1="204.0" y1="66.0" x2="183.0" y2="34.0" style="stroke:black;stroke-width:1;"/>
  <line x1="189.0" y1="67.0" x2="165.0" y2="44.0" style="stroke:black;stroke-width:1;"/>
  <line x1="183.0" y1="34.0" x2="165.0" y2="44.0" style="stroke:black;stroke-width:1;"/>
  <line x1="189.0" y1="67.0" x2="183.0" y2="34.0" style="stroke:black;stroke-width:1;"/>
  <line x1="147.0" y1="70.0" x2="127.0" y2="47.0" style="stroke:black;stroke-width:1;"/>
  <line x1="165.0" y1="44.0" x2="127.0" y2="47.0" style="stroke:black;stroke-width:1;"/>
  <line x1="147.0" y1="70.0" x2="165.0" y2="44.0" style="stroke:black;stroke-width:1;"/>
  <line x1="101.0" y1="71.0" x2="85.0" y2="39.0" style="stroke:black;stroke-width:1;"/>
  <line x1="107.0" y1="40.0" x2="85.0" y2="39.0" style="stroke:black;stroke-width:1;"/>
  <line x1="101.0" y1="71.0" x2="107.0" y2="40.0" style="stroke:black;stroke-width:1;"/>
  <line x1="238.0" y1="47.0" x2="204.0" y2="66.0" style="stroke:black;stroke-width:1;"/>
  <line x1="224.0" y1="33.0" x2="204.0" y2="66.0" style="stroke:black;stroke-width:1;"/>
  <line x1="238.0" y1="47.0" x2="224.0" y2="33.0" style="stroke:black;stroke-width:1;"/>
  <line x1="238.0" y1="47.0" x2="217.0" y2="73.0" style="stroke:black;stroke-width:1;"/>
  <line x1="204.0" y1="66.0" x2="217.0" y2="73.0" style="stroke:black;stroke-width:1;"/>
  <line x1="238.0" y1="47.0" x2="204.0" y2="66.0" style="stroke:black;stroke-width:1;"/>
  <line x1="101.0" y1="71.0" x2="86.0" y2="72.0" style="stroke:black;stroke-width:1;"/>
  <line x1="85.0" y1="39.0" x2="86.0" y2="72.0" style="stroke:black;stroke-width:1;"/>
  <line x1="101.0" y1="71.0" x2="85.0" y2="39.0" style="stroke:black;stroke-width:1;"/>
  <line x1="86.0" y1="72.0" x2="65.0" y2="44.0" style="stroke:black;stroke-width:1;"/>
  <line x1="85.0" y1="39.0" x2="65.0" y2="44.0" style="stroke:black;stroke-width:1;"/>
  <line x1="86.0" y1="72.0" x2="85.0" y2="39.0" style="stroke:black;stroke-width:1;"/>
  <line x1="127.0" y1="47.0" x2="101.0" y2="71.0" style="stroke:black;stroke-width:1;"/>
  <line x1="107.0" y1="40.0" x2="101.0" y2="71.0" style="stroke:black;stroke-width:1;"/>
  <line x1="127.0" y1="47.0" x2="107.0" y2="40.0" style="stroke:black;stroke-width:1;"/>
  <line x1="175.0" y1="78.0" x2="165.0" y2="44.0" style="stroke:black;stroke-width:1;"/>
  <line x1="189.0" y1="67.0" x2="165.0" y2="44.0" style="stroke:black;stroke-width:1;"/>
  <line x1="175.0" y1="78.0" x2="189.0" y2="67.0" style="stroke:black;stroke-width:1;"/>
  <line x1="127.0" y1="47.0" x2="116.0" y2="80.0" style="stroke:black;stroke-width:1;"/>
  <line x1="101.0" y1="71.0" x2="116.0" y2="80.0" style="stroke:black;stroke-width:1;"/>
  <line x1="127.0" y1="47.0" x2="101.0" y2="71.0" style="stroke:black;stroke-width:1;"/>
  <line x1="74.0" y1="80.0" x2="65.0" y2="44.0" style="stroke:black;stroke-width:1;"/>
  <line x1="86.0" y1="72.0" x2="65.0" y2="44.0" style="stroke:black;stroke-width:1;"/>
  <line x1="74.0" y1="80.0" x2="86.0" y2="72.0" style="stroke:black;stroke-width:1;"/>
  <line x1="217.0" y1="73.0" x2="206.0" y2="80.0" style="stroke:black;stroke-width:1;"/>
  <line x1="204.0" y1="66.0" x2="206.0" y2="80.0" style="stroke:black;stroke-width:1;"/>
  <line x1="217.0" y1="73.0" x2="204.0" y2="66.0" style="stroke:black;stroke-width:1;"/>
  <line x1="74.0" y1="80.0" x2="51.0" y2="58.0" style="stroke:black;stroke-width:1;"/>
  <line x1="65.0" y1="44.0" x2="51.0" y2="58.0" style="stroke:black;stroke-width:1;"/>
  <line x1="74.0" y1="80.0" x2="65.0" y2="44.0" style="stroke:black;stroke-width:1;"/>
  <line x1="175.0" y1="78.0" x2="147.0" y2="70.0" style="stroke:black;stroke-width:1;"/>
  <line x1="165.0" y1="44.0" x2="147.0" y2="70.0" style="stroke:black;stroke-width:1;"/>
  <line x1="175.0" y1="78.0" x2="165.0" y2="44.0" style="stroke:black;stroke-width:1;"/>
  <line x1="204.0" y1="66.0" x2="191.0" y2="81.0" style="stroke:black;stroke-width:1;"/>
  <line x1="189.0" y1="67.0" x2="191.0" y2="81.0" style="stroke:black;stroke-width:1;"/>
  <line x1="204.0" y1="66.0" x2="189.0" y2="67.0" style="stroke:black;stroke-width:1;"/>
  <line x1="206.0" y1="80.0" x2="191.0" y2="81.0" style="stroke:black;stroke-width:1;"/>
  <line x1="204.0" y1="66.0" x2="191.0" y2="81.0" style="stroke:black;stroke-width:1;"/>
  <line x1="206.0" y1="80.0" x2="204.0" y2="66.0" style="stroke:black;stroke-width:1;"/>
  <line x1="191.0" y1="81.0" x2="175.0" y2="78.0" style="stroke:black;stroke-width:1;"/>
  <line x1="189.0" y1="67.0" x2="175.0" y2="78.0" style="stroke:black;stroke-width:1;"/>
  <line x1="191.0" y1="81.0" x2="189.0" y2="67.0" style="stroke:black;stroke-width:1;"/>
  <line x1="147.0" y1="70.0" x2="116.0" y2="80.0" style="stroke:black;stroke-width:1;"/>
  <line x1="127.0" y1="47.0" x2="116.0" y2="80.0" style="stroke:black;stroke-width:1;"/>
  <line x1="147.0" y1="70.0" x2="127.0" y2="47.0" style="stroke:black;stroke-width:1;"/>
  <line x1="86.0" y1="85.0" x2="74.0" y2="80.0" style="stroke:black;stroke-width:1;"/>
  <line x1="86.0" y1="72.0" x2="74.0" y2="80.0" style="stroke:black;stroke-width:1;"/>
  <line x1="86.0" y1="85.0" x2="86.0" y2="72.0" style="stroke:black;stroke-width:1;"/>
  <line x1="255.0" y1="71.0" x2="217.0" y2="73.0" style="stroke:black;stroke-width:1;"/>
  <line x1="238.0" y1="47.0" x2="217.0" y2="73.0" style="stroke:black;stroke-width:1;"/>
  <line x1="255.0" y1="71.0" x2="238.0" y2="47.0" style="stroke:black;stroke-width:1;"/>
  <line x1="116.0" y1="80.0" x2="101.0" y2="85.0" style="stroke:black;stroke-width:1;"/>
  <line x1="101.0" y1="71.0" x2="101.0" y2="85.0" style="stroke:black;stroke-width:1;"/>
  <line x1="116.0" y1="80.0" x2="101.0" y2="71.0" style="stroke:black;stroke-width:1;"/>
  <line x1="101.0" y1="85.0" x2="86.0" y2="72.0" style="stroke:black;stroke-width:1;"/>
  <line x1="101.0" y1="71.0" x2="86.0" y2="72.0" style="stroke:black;stroke-width:1;"/>
  <line x1="101.0" y1="85.0" x2="101.0" y2="71.0" style="stroke:black;stroke-width:1;"/>
  <line x1="101.0" y1="85.0" x2="86.0" y2="85.0" style="stroke:black;stroke-width:1;"/>
  <line x1="86.0" y1="72.0" x2="86.0" y2="85.0" style="stroke:black;stroke-width:1;"/>
  <line x1="101.0" y1="85.0" x2="86.0" y2="72.0" style="stroke:black;stroke-width:1;"/>
  <line x1="175.0" y1="78.0" x2="149.0" y2="89.0" style="stroke:black;stroke-width:1;"/>
  <line x1="147.0" y1="70.0" x2="149.0" y2="89.0" style="stroke:black;stroke-width:1;"/>
  <line x1="175.0" y1="78.0" x2="147.0" y2="70.0" style="stroke:black;stroke-width:1;"/>
  <line x1="149.0" y1="89.0" x2="116.0" y2="80.0" style="stroke:black;stroke-width:1;"/>
  <line x1="147.0" y1="70.0" x2="116.0" y2="80.0" style="stroke:black;stroke-width:1;"/>
  <line x1="149.0" y1="89.0" x2="147.0" y2="70.0" style="stroke:black;stroke-width:1;"/>
  <line x1="74.0" y1="80.0" x2="30.0" y2="83.0" style="stroke:black;stroke-width:1;"/>
  <line x1="51.0" y1="58.0" x2="30.0" y2="83.0" style="stroke:black;stroke-width:1;"/>
  <line x1="74.0" y1="80.0" x2="51.0" y2="58.0" style="stroke:black;stroke-width:1;"/>
  <line x1="254.0" y1="102.0" x2="217.0" y2="73.0" style="stroke:black;stroke-width:1;"/>
  <line x1="255.0" y1="71.0" x2="217.0" y2="73.0" style="stroke:black;stroke-width:1;"/>
  <line x1="254.0" y1="102.0" x2="255.0" y2="71.0" style="stroke:black;stroke-width:1;"/>
  <line x1="175.0" y1="78.0" x2="150.0" y2="108.0" style="stroke:black;stroke-width:1;"/>
  <line x1="149.0" y1="89.0" x2="150.0" y2="108.0" style="stroke:black;stroke-width:1;"/>
  <line x1="175.0" y1="78.0" x2="149.0" y2="89.0" style="stroke:black;stroke-width:1;"/>
  <line x1="74.0" y1="80.0" x2="33.0" y2="113.0" style="stroke:black;stroke-width:1;"/>
  <line x1="30.0" y1="83.0" x2="33.0" y2="113.0" style="stroke:black;stroke-width:1;"/>
  <line x1="74.0" y1="80.0" x2="30.0" y2="83.0" style="stroke:black;stroke-width:1;"/>
  <line x1="150.0" y1="108.0" x2="116.0" y2="80.0" style="stroke:black;stroke-width:1;"/>
  <line x1="149.0" y1="89.0" x2="116.0" y2="80.0" style="stroke:black;stroke-width:1;"/>
  <line x1="150.0" y1="108.0" x2="149.0" y2="89.0" style="stroke:black;stroke-width:1;"/>
  <line x1="254.0" y1="102.0" x2="206.0" y2="80.0" style="stroke:black;stroke-width:1;"/>
  <line x1="217.0" y1="73.0" x2="206.0" y2="80.0" style="stroke:black;stroke-width:1;"/>
  <line x1="254.0" y1="102.0" x2="217.0" y2="73.0" style="stroke:black;stroke-width:1;"/>
  <line x1="191.0" y1="81.0" x2="150.0" y2="108.0" style="stroke:black;stroke-width:1;"/>
  <line x1="175.0" y1="78.0" x2="150.0" y2="108.0" style="stroke:black;stroke-width:1;"/>
  <line x1="191.0" y1="81.0" x2="175.0" y2="78.0" style="stroke:black;stroke-width:1;"/>
  <line x1="150.0" y1="108.0" x2="101.0" y2="85.0" style="stroke:black;stroke-width:1;"/>
  <line x1="116.0" y1="80.0" x2="101.0" y2="85.0" style="stroke:black;stroke-width:1;"/>
  <line x1="150.0" y1="108.0" x2="116.0" y2="80.0" style="stroke:black;stroke-width:1;"/>
  <line x1="249.0" y1="132.0" x2="206.0" y2="80.0" style="stroke:black;stroke-width:1;"/>
  <line x1="254.0" y1="102.0" x2="206.0" y2="80.0" style="stroke:black;stroke-width:1;"/>
  <line x1="249.0" y1="132.0" x2="254.0" y2="102.0" style="stroke:black;stroke-width:1;"/>
  <line x1="86.0" y1="85.0" x2="33.0" y2="113.0" style="stroke:black;stroke-width:1;"/>
  <line x1="74.0" y1="80.0" x2="33.0" y2="113.0" style="stroke:black;stroke-width:1;"/>
  <line x1="86.0" y1="85.0" x2="74.0" y2="80.0" style="stroke:black;stroke-width:1;"/>
  <line x1="130.0" y1="147.0" x2="150.0" y2="108.0" style="stroke:black;stroke-width:1;"/>
  <line x1="151.0" y1="127.0" x2="150.0" y2="108.0" style="stroke:black;stroke-width:1;"/>
  <line x1="130.0" y1="147.0" x2="151.0" y2="127.0" style="stroke:black;stroke-width:1;"/>
  <line x1="150.0" y1="108.0" x2="170.0" y2="146.0" style="stroke:black;stroke-width:1;"/>
  <line x1="151.0" y1="127.0" x2="170.0" y2="146.0" style="stroke:black;stroke-width:1;"/>
  <line x1="150.0" y1="108.0" x2="151.0" y2="127.0" style="stroke:black;stroke-width:1;"/>
  <line x1="191.0" y1="81.0" x2="170.0" y2="146.0" style="stroke:black;stroke-width:1;"/>
  <line x1="150.0" y1="108.0" x2="170.0" y2="146.0" style="stroke:black;stroke-width:1;"/>
  <line x1="191.0" y1="81.0" x2="150.0" y2="108.0" style="stroke:black;stroke-width:1;"/>
  <line x1="130.0" y1="147.0" x2="101.0" y2="85.0" style="stroke:black;stroke-width:1;"/>
  <line x1="150.0" y1="108.0" x2="101.0" y2="85.0" style="stroke:black;stroke-width:1;"/>
  <line x1="130.0" y1="147.0" x2="150.0" y2="108.0" style="stroke:black;stroke-width:1;"/>
  <line x1="161.0" y1="150.0" x2="151.0" y2="127.0" style="stroke:black;stroke-width:1;"/>
  <line x1="170.0" y1="146.0" x2="151.0" y2="127.0" style="stroke:black;stroke-width:1;"/>
  <line x1="161.0" y1="150.0" x2="170.0" y2="146.0" style="stroke:black;stroke-width:1;"/>
  <line x1="151.0" y1="127.0" x2="140.0" y2="151.0" style="stroke:black;stroke-width:1;"/>
  <line x1="130.0" y1="147.0" x2="140.0" y2="151.0" style="stroke:black;stroke-width:1;"/>
  <line x1="151.0" y1="127.0" x2="130.0" y2="147.0" style="stroke:black;stroke-width:1;"/>
  <line x1="161.0" y1="150.0" x2="151.0" y2="154.0" style="stroke:black;stroke-width:1;"/>
  <line x1="151.0" y1="127.0" x2="151.0" y2="154.0" style="stroke:black;stroke-width:1;"/>
  <line x1="161.0" y1="150.0" x2="151.0" y2="127.0" style="stroke:black;stroke-width:1;"/>
  <line x1="151.0" y1="154.0" x2="140.0" y2="151.0" style="stroke:black;stroke-width:1;"/>
  <line x1="151.0" y1="127.0" x2="140.0" y2="151.0" style="stroke:black;stroke-width:1;"/>
  <line x1="151.0" y1="154.0" x2="151.0" y2="127.0" style="stroke:black;stroke-width:1;"/>
  <line x1="86.0" y1="85.0" x2="38.0" y2="142.0" style="stroke:black;stroke-width:1;"/>
  <line x1="33.0" y1="113.0" x2="38.0" y2="142.0" style="stroke:black;stroke-width:1;"/>
  <line x1="86.0" y1="85.0" x2="33.0" y2="113.0" style="stroke:black;stroke-width:1;"/>
  <line x1="206.0" y1="80.0" x2="170.0" y2="146.0" style="stroke:black;stroke-width:1;"/>
  <line x1="191.0" y1="81.0" x2="170.0" y2="146.0" style="stroke:black;stroke-width:1;"/>
  <line x1="206.0" y1="80.0" x2="191.0" y2="81.0" style="stroke:black;stroke-width:1;"/>
  <line x1="249.0" y1="132.0" x2="170.0" y2="146.0" style="stroke:black;stroke-width:1;"/>
  <line x1="206.0" y1="80.0" x2="170.0" y2="146.0" style="stroke:black;stroke-width:1;"/>
  <line x1="249.0" y1="132.0" x2="206.0" y2="80.0" style="stroke:black;stroke-width:1;"/>
  <line x1="130.0" y1="147.0" x2="86.0" y2="85.0" style="stroke:black;stroke-width:1;"/>
  <line x1="101.0" y1="85.0" x2="86.0" y2="85.0" style="stroke:black;stroke-width:1;"/>
  <line x1="130.0" y1="147.0" x2="101.0" y2="85.0" style="stroke:black;stroke-width:1;"/>
  <line x1="161.0" y1="173.0" x2="151.0" y2="154.0" style="stroke:black;stroke-width:1;"/>
  <line x1="161.0" y1="150.0" x2="151.0" y2="154.0" style="stroke:black;stroke-width:1;"/>
  <line x1="161.0" y1="173.0" x2="161.0" y2="150.0" style="stroke:black;stroke-width:1;"/>
  <line x1="151.0" y1="154.0" x2="137.0" y2="173.0" style="stroke:black;stroke-width:1;"/>
  <line x1="140.0" y1="151.0" x2="137.0" y2="173.0" style="stroke:black;stroke-width:1;"/>
  <line x1="151.0" y1="154.0" x2="140.0" y2="151.0" style="stroke:black;stroke-width:1;"/>
  <line x1="137.0" y1="173.0" x2="130.0" y2="147.0" style="stroke:black;stroke-width:1;"/>
  <line x1="140.0" y1="151.0" x2="130.0" y2="147.0" style="stroke:black;stroke-width:1;"/>
  <line x1="137.0" y1="173.0" x2="140.0" y2="151.0" style="stroke:black;stroke-width:1;"/>
  <line x1="170.0" y1="146.0" x2="161.0" y2="173.0" style="stroke:black;stroke-width:1;"/>
  <line x1="161.0" y1="150.0" x2="161.0" y2="173.0" style="stroke:black;stroke-width:1;"/>
  <line x1="170.0" y1="146.0" x2="161.0" y2="150.0" style="stroke:black;stroke-width:1;"/>
  <line x1="148.0" y1="177.0" x2="137.0" y2="173.0" style="stroke:black;stroke-width:1;"/>
  <line x1="151.0" y1="154.0" x2="137.0" y2="173.0" style="stroke:black;stroke-width:1;"/>
  <line x1="148.0" y1="177.0" x2="151.0" y2="154.0" style="stroke:black;stroke-width:1;"/>
  <line x1="161.0" y1="173.0" x2="148.0" y2="177.0" style="stroke:black;stroke-width:1;"/>
  <line x1="151.0" y1="154.0" x2="148.0" y2="177.0" style="stroke:black;stroke-width:1;"/>
  <line x1="161.0" y1="173.0" x2="151.0" y2="154.0" style="stroke:black;stroke-width:1;"/>
  <line x1="175.0" y1="180.0" x2="161.0" y2="173.0" style="stroke:black;stroke-width:1;"/>
  <line x1="170.0" y1="146.0" x2="161.0" y2="173.0" style="stroke:black;stroke-width:1;"/>
  <line x1="175.0" y1="180.0" x2="170.0" y2="146.0" style="stroke:black;stroke-width:1;"/>
  <line x1="130.0" y1="147.0" x2="38.0" y2="142.0" style="stroke:black;stroke-width:1;"/>
  <line x1="86.0" y1="85.0" x2="38.0" y2="142.0" style="stroke:black;stroke-width:1;"/>
  <line x1="130.0" y1="147.0" x2="86.0" y2="85.0" style="stroke:black;stroke-width:1;"/>
  <line x1="137.0" y1="173.0" x2="121.0" y2="181.0" style="stroke:black;stroke-width:1;"/>
  <line x1="130.0" y1="147.0" x2="121.0" y2="181.0" style="stroke:black;stroke-width:1;"/>
  <line x1="137.0" y1="173.0" x2="130.0" y2="147.0" style="stroke:black;stroke-width:1;"/>
  <line x1="245.0" y1="164.0" x2="170.0" y2="146.0" style="stroke:black;stroke-width:1;"/>
  <line x1="249.0" y1="132.0" x2="170.0" y2="146.0" style="stroke:black;stroke-width:1;"/>
  <line x1="245.0" y1="164.0" x2="249.0" y2="132.0" style="stroke:black;stroke-width:1;"/>
  <line x1="161.0" y1="187.0" x2="148.0" y2="177.0" style="stroke:black;stroke-width:1;"/>
  <line x1="161.0" y1="173.0" x2="148.0" y2="177.0" style="stroke:black;stroke-width:1;"/>
  <line x1="161.0" y1="187.0" x2="161.0" y2="173.0" style="stroke:black;stroke-width:1;"/>
  <line x1="175.0" y1="180.0" x2="161.0" y2="187.0" style="stroke:black;stroke-width:1;"/>
  <line x1="161.0" y1="173.0" x2="161.0" y2="187.0" style="stroke:black;stroke-width:1;"/>
  <line x1="175.0" y1="180.0" x2="161.0" y2="173.0" style="stroke:black;stroke-width:1;"/>
  <line x1="148.0" y1="177.0" x2="137.0" y2="188.0" style="stroke:black;stroke-width:1;"/>
  <line x1="137.0" y1="173.0" x2="137.0" y2="188.0" style="stroke:black;stroke-width:1;"/>
  <line x1="148.0" y1="177.0" x2="137.0" y2="173.0" style="stroke:black;stroke-width:1;"/>
  <line x1="137.0" y1="188.0" x2="121.0" y2="181.0" style="stroke:black;stroke-width:1;"/>
  <line x1="137.0" y1="173.0" x2="121.0" y2="181.0" style="stroke:black;stroke-width:1;"/>
  <line x1="137.0" y1="188.0" x2="137.0" y2="173.0" style="stroke:black;stroke-width:1;"/>
  <line x1="161.0" y1="187.0" x2="149.0" y2="189.0" style="stroke:black;stroke-width:1;"/>
  <line x1="148.0" y1="177.0" x2="149.0" y2="189.0" style="stroke:black;stroke-width:1;"/>
  <line x1="161.0" y1="187.0" x2="148.0" y2="177.0" style="stroke:black;stroke-width:1;"/>
  <line x1="149.0" y1="189.0" x2="137.0" y2="188.0" style="stroke:black;stroke-width:1;"/>
  <line x1="148.0" y1="177.0" x2="137.0" y2="188.0" style="stroke:black;stroke-width:1;"/>
  <line x1="149.0" y1="189.0" x2="148.0" y2="177.0" style="stroke:black;stroke-width:1;"/>
  <line x1="130.0" y1="147.0" x2="44.0" y2="172.0" style="stroke:black;stroke-width:1;"/>
  <line x1="38.0" y1="142.0" x2="44.0" y2="172.0" style="stroke:black;stroke-width:1;"/>
  <line x1="130.0" y1="147.0" x2="38.0" y2="142.0" style="stroke:black;stroke-width:1;"/>
  <line x1="186.0" y1="196.0" x2="179.0" y2="196.0" style="stroke:black;stroke-width:1;"/>
  <line x1="175.0" y1="180.0" x2="179.0" y2="196.0" style="stroke:black;stroke-width:1;"/>
  <line x1="186.0" y1="196.0" x2="175.0" y2="180.0" style="stroke:black;stroke-width:1;"/>
  <line x1="245.0" y1="164.0" x2="175.0" y2="180.0" style="stroke:black;stroke-width:1;"/>
  <line x1="170.0" y1="146.0" x2="175.0" y2="180.0" style="stroke:black;stroke-width:1;"/>
  <line x1="245.0" y1="164.0" x2="170.0" y2="146.0" style="stroke:black;stroke-width:1;"/>
  <line x1="118.0" y1="196.0" x2="110.0" y2="197.0" style="stroke:black;stroke-width:1;"/>
  <line x1="121.0" y1="181.0" x2="110.0" y2="197.0" style="stroke:black;stroke-width:1;"/>
  <line x1="118.0" y1="196.0" x2="121.0" y2="181.0" style="stroke:black;stroke-width:1;"/>
  <line x1="121.0" y1="181.0" x2="44.0" y2="172.0" style="stroke:black;stroke-width:1;"/>
  <line x1="130.0" y1="147.0" x2="44.0" y2="172.0" style="stroke:black;stroke-width:1;"/>
  <line x1="121.0" y1="181.0" x2="130.0" y2="147.0" style="stroke:black;stroke-width:1;"/>
  <line x1="179.0" y1="196.0" x2="161.0" y2="187.0" style="stroke:black;stroke-width:1;"/>
  <line x1="175.0" y1="180.0" x2="161.0" y2="187.0" style="stroke:black;stroke-width:1;"/>
  <line x1="179.0" y1="196.0" x2="175.0" y2="180.0" style="stroke:black;stroke-width:1;"/>
  <line x1="137.0" y1="188.0" x2="118.0" y2="196.0" style="stroke:black;stroke-width:1;"/>
  <line x1="121.0" y1="181.0" x2="118.0" y2="196.0" style="stroke:black;stroke-width:1;"/>
  <line x1="137.0" y1="188.0" x2="121.0" y2="181.0" style="stroke:black;stroke-width:1;"/>
  <line x1="161.0" y1="203.0" x2="149.0" y2="189.0" style="stroke:black;stroke-width:1;"/>
  <line x1="161.0" y1="187.0" x2="149.0" y2="189.0" style="stroke:black;stroke-width:1;"/>
  <line x1="161.0" y1="203.0" x2="161.0" y2="187.0" style="stroke:black;stroke-width:1;"/>
  <line x1="245.0" y1="164.0" x2="186.0" y2="196.0" style="stroke:black;stroke-width:1;"/>
  <line x1="175.0" y1="180.0" x2="186.0" y2="196.0" style="stroke:black;stroke-width:1;"/>
  <line x1="245.0" y1="164.0" x2="175.0" y2="180.0" style="stroke:black;stroke-width:1;"/>
  <line x1="179.0" y1="196.0" x2="161.0" y2="203.0" style="stroke:black;stroke-width:1;"/>
  <line x1="161.0" y1="187.0" x2="161.0" y2="203.0" style="stroke:black;stroke-width:1;"/>
  <line x1="179.0" y1="196.0" x2="161.0" y2="187.0" style="stroke:black;stroke-width:1;"/>
  <line x1="149.0" y1="189.0" x2="136.0" y2="204.0" style="stroke:black;stroke-width:1;"/>
  <line x1="137.0" y1="188.0" x2="136.0" y2="204.0" style="stroke:black;stroke-width:1;"/>
  <line x1="149.0" y1="189.0" x2="137.0" y2="188.0" style="stroke:black;stroke-width:1;"/>
  <line x1="136.0" y1="204.0" x2="118.0" y2="196.0" style="stroke:black;stroke-width:1;"/>
  <line x1="137.0" y1="188.0" x2="118.0" y2="196.0" style="stroke:black;stroke-width:1;"/>
  <line x1="136.0" y1="204.0" x2="137.0" y2="188.0" style="stroke:black;stroke-width:1;"/>
  <line x1="148.0" y1="205.0" x2="136.0" y2="204.0" style="stroke:black;stroke-width:1;"/>
  <line x1="149.0" y1="189.0" x2="136.0" y2="204.0" style="stroke:black;stroke-width:1;"/>
  <line x1="148.0" y1="205.0" x2="149.0" y2="189.0" style="stroke:black;stroke-width:1;"/>
  <line x1="161.0" y1="203.0" x2="148.0" y2="205.0" style="stroke:black;stroke-width:1;"/>
  <line x1="149.0" y1="189.0" x2="148.0" y2="205.0" style="stroke:black;stroke-width:1;"/>
  <line x1="161.0" y1="203.0" x2="149.0" y2="189.0" style="stroke:black;stroke-width:1;"/>
  <line x1="110.0" y1="197.0" x2="44.0" y2="172.0" style="stroke:black;stroke-width:1;"/>
  <line x1="121.0" y1="181.0" x2="44.0" y2="172.0" style="stroke:black;stroke-width:1;"/>
  <line x1="110.0" y1="197.0" x2="121.0" y2="181.0" style="stroke:black;stroke-width:1;"/>
  <line x1="238.0" y1="195.0" x2="186.0" y2="196.0" style="stroke:black;stroke-width:1;"/>
  <line x1="245.0" y1="164.0" x2="186.0" y2="196.0" style="stroke:black;stroke-width:1;"/>
  <line x1="238.0" y1="195.0" x2="245.0" y2="164.0" style="stroke:black;stroke-width:1;"/>
  <line x1="110.0" y1="197.0" x2="54.0" y2="200.0" style="stroke:black;stroke-width:1;"/>
  <line x1="44.0" y1="172.0" x2="54.0" y2="200.0" style="stroke:black;stroke-width:1;"/>
  <line x1="110.0" y1="197.0" x2="44.0" y2="172.0" style="stroke:black;stroke-width:1;"/>
  <line x1="176.0" y1="214.0" x2="161.0" y2="203.0" style="stroke:black;stroke-width:1;"/>
  <line x1="179.0" y1="196.0" x2="161.0" y2="203.0" style="stroke:black;stroke-width:1;"/>
  <line x1="176.0" y1="214.0" x2="179.0" y2="196.0" style="stroke:black;stroke-width:1;"/>
  <line x1="186.0" y1="196.0" x2="176.0" y2="214.0" style="stroke:black;stroke-width:1;"/>
  <line x1="179.0" y1="196.0" x2="176.0" y2="214.0" style="stroke:black;stroke-width:1;"/>
  <line x1="186.0" y1="196.0" x2="179.0" y2="196.0" style="stroke:black;stroke-width:1;"/>
  <line x1="136.0" y1="204.0" x2="121.0" y2="216.0" style="stroke:black;stroke-width:1;"/>
  <line x1="118.0" y1="196.0" x2="121.0" y2="216.0" style="stroke:black;stroke-width:1;"/>
  <line x1="136.0" y1="204.0" x2="118.0" y2="196.0" style="stroke:black;stroke-width:1;"/>
  <line x1="121.0" y1="216.0" x2="110.0" y2="197.0" style="stroke:black;stroke-width:1;"/>
  <line x1="118.0" y1="196.0" x2="110.0" y2="197.0" style="stroke:black;stroke-width:1;"/>
  <line x1="121.0" y1="216.0" x2="118.0" y2="196.0" style="stroke:black;stroke-width:1;"/>
  <line x1="176.0" y1="214.0" x2="162.0" y2="223.0" style="stroke:black;stroke-width:1;"/>
  <line x1="161.0" y1="203.0" x2="162.0" y2="223.0" style="stroke:black;stroke-width:1;"/>
  <line x1="176.0" y1="214.0" x2="161.0" y2="203.0" style="stroke:black;stroke-width:1;"/>
  <line x1="135.0" y1="223.0" x2="121.0" y2="216.0" style="stroke:black;stroke-width:1;"/>
  <line x1="136.0" y1="204.0" x2="121.0" y2="216.0" style="stroke:black;stroke-width:1;"/>
  <line x1="135.0" y1="223.0" x2="136.0" y2="204.0" style="stroke:black;stroke-width:1;"/>
  <line x1="162.0" y1="223.0" x2="148.0" y2="205.0" style="stroke:black;stroke-width:1;"/>
  <line x1="161.0" y1="203.0" x2="148.0" y2="205.0" style="stroke:black;stroke-width:1;"/>
  <line x1="162.0" y1="223.0" x2="161.0" y2="203.0" style="stroke:black;stroke-width:1;"/>
  <line x1="148.0" y1="205.0" x2="135.0" y2="223.0" style="stroke:black;stroke-width:1;"/>
  <line x1="136.0" y1="204.0" x2="135.0" y2="223.0" style="stroke:black;stroke-width:1;"/>
  <line x1="148.0" y1="205.0" x2="136.0" y2="204.0" style="stroke:black;stroke-width:1;"/>
  <line x1="162.0" y1="223.0" x2="149.0" y2="224.0" style="stroke:black;stroke-width:1;"/>
  <line x1="148.0" y1="205.0" x2="149.0" y2="224.0" style="stroke:black;stroke-width:1;"/>
  <line x1="162.0" y1="223.0" x2="148.0" y2="205.0" style="stroke:black;stroke-width:1;"/>
  <line x1="149.0" y1="224.0" x2="135.0" y2="223.0" style="stroke:black;stroke-width:1;"/>
  <line x1="148.0" y1="205.0" x2="135.0" y2="223.0" style="stroke:black;stroke-width:1;"/>
  <line x1="149.0" y1="224.0" x2="148.0" y2="205.0" style="stroke:black;stroke-width:1;"/>
  <line x1="224.0" y1="224.0" x2="186.0" y2="196.0" style="stroke:black;stroke-width:1;"/>
  <line x1="238.0" y1="195.0" x2="186.0" y2="196.0" style="stroke:black;stroke-width:1;"/>
  <line x1="224.0" y1="224.0" x2="238.0" y2="195.0" style="stroke:black;stroke-width:1;"/>
  <line x1="110.0" y1="197.0" x2="70.0" y2="227.0" style="stroke:black;stroke-width:1;"/>
  <line x1="54.0" y1="200.0" x2="70.0" y2="227.0" style="stroke:black;stroke-width:1;"/>
  <line x1="110.0" y1="197.0" x2="54.0" y2="200.0" style="stroke:black;stroke-width:1;"/>
  <line x1="224.0" y1="224.0" x2="176.0" y2="214.0" style="stroke:black;stroke-width:1;"/>
  <line x1="186.0" y1="196.0" x2="176.0" y2="214.0" style="stroke:black;stroke-width:1;"/>
  <line x1="224.0" y1="224.0" x2="186.0" y2="196.0" style="stroke:black;stroke-width:1;"/>
  <line x1="121.0" y1="216.0" x2="70.0" y2="227.0" style="stroke:black;stroke-width:1;"/>
  <line x1="110.0" y1="197.0" x2="70.0" y2="227.0" style="stroke:black;stroke-width:1;"/>
  <line x1="121.0" y1="216.0" x2="110.0" y2="197.0" style="stroke:black;stroke-width:1;"/>
  <line x1="203.0" y1="248.0" x2="176.0" y2="214.0" style="stroke:black;stroke-width:1;"/>
  <line x1="224.0" y1="224.0" x2="176.0" y2="214.0" style="stroke:black;stroke-width:1;"/>
  <line x1="203.0" y1="248.0" x2="224.0" y2="224.0" style="stroke:black;stroke-width:1;"/>
  <line x1="121.0" y1="216.0" x2="91.0" y2="250.0" style="stroke:black;stroke-width:1;"/>
  <line x1="70.0" y1="227.0" x2="91.0" y2="250.0" style="stroke:black;stroke-width:1;"/>
  <line x1="121.0" y1="216.0" x2="70.0" y2="227.0" style="stroke:black;stroke-width:1;"/>
  <line x1="203.0" y1="248.0" x2="162.0" y2="223.0" style="stroke:black;stroke-width:1;"/>
  <line x1="176.0" y1="214.0" x2="162.0" y2="223.0" style="stroke:black;stroke-width:1;"/>
  <line x1="203.0" y1="248.0" x2="176.0" y2="214.0" style="stroke:black;stroke-width:1;"/>
  <line x1="203.0" y1="248.0" x2="178.0" y2="268.0" style="stroke:black;stroke-width:1;"/>
  <line x1="162.0" y1="223.0" x2="178.0" y2="268.0" style="stroke:black;stroke-width:1;"/>
  <line x1="203.0" y1="248.0" x2="162.0" y2="223.0" style="stroke:black;stroke-width:1;"/>
  <line x1="118.0" y1="268.0" x2="121.0" y2="216.0" style="stroke:black;stroke-width:1;"/>
  <line x1="135.0" y1="223.0" x2="121.0" y2="216.0" style="stroke:black;stroke-width:1;"/>
  <line x1="118.0" y1="268.0" x2="135.0" y2="223.0" style="stroke:black;stroke-width:1;"/>
  <line x1="118.0" y1="268.0" x2="91.0" y2="250.0" style="stroke:black;stroke-width:1;"/>
  <line x1="121.0" y1="216.0" x2="91.0" y2="250.0" style="stroke:black;stroke-width:1;"/>
  <line x1="118.0" y1="268.0" x2="121.0" y2="216.0" style="stroke:black;stroke-width:1;"/>
  <line x1="148.0" y1="273.0" x2="135.0" y2="223.0" style="stroke:black;stroke-width:1;"/>
  <line x1="149.0" y1="224.0" x2="135.0" y2="223.0" style="stroke:black;stroke-width:1;"/>
  <line x1="148.0" y1="273.0" x2="149.0" y2="224.0" style="stroke:black;stroke-width:1;"/>
  <line x1="162.0" y1="223.0" x2="148.0" y2="273.0" style="stroke:black;stroke-width:1;"/>
  <line x1="149.0" y1="224.0" x2="148.0" y2="273.0" style="stroke:black;stroke-width:1;"/>
  <line x1="162.0" y1="223.0" x2="149.0" y2="224.0" style="stroke:black;stroke-width:1;"/>
  <line x1="178.0" y1="268.0" x2="148.0" y2="273.0" style="stroke:black;stroke-width:1;"/>
  <line x1="162.0" y1="223.0" x2="148.0" y2="273.0" style="stroke:black;stroke-width:1;"/>
  <line x1="178.0" y1="268.0" x2="162.0" y2="223.0" style="stroke:black;stroke-width:1;"/>
  <line x1="148.0" y1="273.0" x2="118.0" y2="268.0" style="stroke:black;stroke-width:1;"/>
  <line x1="135.0" y1="223.0" x2="118.0" y2="268.0" style="stroke:black;stroke-width:1;"/>
  <line x1="148.0" y1="273.0" x2="135.0" y2="223.0" style="stroke:black;stroke-width:1;"/>
  <line x1="254.0" y1="102.0" x2="245.0" y2="164.0" style="stroke:black;stroke-width:1;"/>
  <line x1="249.0" y1="132.0" x2="245.0" y2="164.0" style="stroke:black;stroke-width:1;"/>
  <line x1="254.0" y1="102.0" x2="249.0" y2="132.0" style="stroke:black;stroke-width:1;"/>
  <circle cx="30.0" cy="83.0" r="5" stroke="black" stroke-width="2" fill="lime"/>
  <circle cx="33.0" cy="113.0" r="5" stroke="black" stroke-width="2" fill="lime"/>
  <circle cx="38.0" cy="142.0" r="5" stroke="black" stroke-width="2" fill="lime"/>
  <circle cx="44.0" cy="172.0" r="5" stroke="black" stroke-width="2" fill="lime"/>
  <circle cx="54.0" cy="200.0" r="5" stroke="black" stroke-width="2" fill="lime"/>
  <circle cx="70.0" cy="227.0" r="5" stroke="black" stroke-width="2" fill="lime"/>
  <circle cx="91.0" cy="250.0" r="5" stroke="black" stroke-width="2" fill="lime"/>
  <circle cx="118.0" cy="268.0" r="5" stroke="black" stroke-width="2" fill="lime"/>
  <circle cx="148.0" cy="273.0" r="5" stroke="black" stroke-width="2" fill="lime"/>
  <circle cx="178.0" cy="268.0" r="5" stroke="black" stroke-width="2" fill="lime"/>
  <circle cx="203.0" cy="248.0" r="5" stroke="black" stroke-width="2" fill="lime"/>
  <circle cx="224.0" cy="224.0" r="5" stroke="black" stroke-width="2" fill="lime"/>
  <circle cx="238.0" cy="195.0" r="5" stroke="black" stroke-width="2" fill="lime"/>
  <circle cx="245.0" cy="164.0" r="5" stroke="black" stroke-width="2" fill="lime"/>
  <circle cx="249.0" cy="132.0" r="5" stroke="black" stroke-width="2" fill="lime"/>
  <circle cx="254.0" cy="102.0" r="5" stroke="black" stroke-width="2" fill="lime"/>
  <circle cx="255.0" cy="71.0" r="5" stroke="black" stroke-width="2" fill="lime"/>
  <circle cx="51.0" cy="58.0" r="5" stroke="black" stroke-width="2" fill="lime"/>
  <circle cx="65.0" cy="44.0" r="5" stroke="black" stroke-width="2" fill="lime"/>
  <circle cx="85.0" cy="39.0" r="5" stroke="black" stroke-width="2" fill="lime"/>
  <circle cx="107.0" cy="40.0" r="5" stroke="black" stroke-width="2" fill="lime"/>
  <circle cx="127.0" cy="47.0" r="5" stroke="black" stroke-width="2" fill="lime"/>
  <circle cx="165.0" cy="44.0" r="5" stroke="black" stroke-width="2" fill="lime"/>
  <circle cx="183.0" cy="34.0" r="5" stroke="black" stroke-width="2" fill="lime"/>
  <circle cx="204.0" cy="30.0" r="5" stroke="black" stroke-width="2" fill="lime"/>
  <circle cx="224.0" cy="33.0" r="5" stroke="black" stroke-width="2" fill="lime"/>
  <circle cx="238.0" cy="47.0" r="5" stroke="black" stroke-width="2" fill="lime"/>
  <circle cx="147.0" cy="70.0" r="5" stroke="black" stroke-width="2" fill="lime"/>
  <circle cx="149.0" cy="89.0" r="5" stroke="black" stroke-width="2" fill="lime"/>
  <circle cx="150.0" cy="108.0" r="5" stroke="black" stroke-width="2" fill="lime"/>
  <circle cx="151.0" cy="127.0" r="5" stroke="black" stroke-width="2" fill="lime"/>
  <circle cx="130.0" cy="147.0" r="5" stroke="black" stroke-width="2" fill="lime"/>
  <circle cx="140.0" cy="151.0" r="5" stroke="black" stroke-width="2" fill="lime"/>
  <circle cx="151.0" cy="154.0" r="5" stroke="black" stroke-width="2" fill="lime"/>
  <circle cx="161.0" cy="150.0" r="5" stroke="black" stroke-width="2" fill="lime"/>
  <circle cx="170.0" cy="146.0" r="5" stroke="black" stroke-width="2" fill="lime"/>
  <circle cx="74.0" cy="80.0" r="5" stroke="black" stroke-width="2" fill="lime"/>
  <circle cx="86.0" cy="72.0" r="5" stroke="black" stroke-width="2" fill="lime"/>
  <circle cx="101.0" cy="71.0" r="5" stroke="black" stroke-width="2" fill="lime"/>
  <circle cx="116.0" cy="80.0" r="5" stroke="black" stroke-width="2" fill="lime"/>
  <circle cx="101.0" cy="85.0" r="5" stroke="black" stroke-width="2" fill="lime"/>
  <circle cx="86.0" cy="85.0" r="5" stroke="black" stroke-width="2" fill="lime"/>
  <circle cx="175.0" cy="78.0" r="5" stroke="black" stroke-width="2" fill="lime"/>
  <circle cx="189.0" cy="67.0" r="5" stroke="black" stroke-width="2" fill="lime"/>
  <circle cx="204.0" cy="66.0" r="5" stroke="black" stroke-width="2" fill="lime"/>
  <circle cx="217.0" cy="73.0" r="5" stroke="black" stroke-width="2" fill="lime"/>
  <circle cx="206.0" cy="80.0" r="5" stroke="black" stroke-width="2" fill="lime"/>
  <circle cx="191.0" cy="81.0" r="5" stroke="black" stroke-width="2" fill="lime"/>
  <circle cx="110.0" cy="197.0" r="5" stroke="black" stroke-width="2" fill="lime"/>
  <circle cx="121.0" cy="181.0" r="5" stroke="black" stroke-width="2" fill="lime"/>
  <circle cx="137.0" cy="173.0" r="5" stroke="black" stroke-width="2" fill="lime"/>
  <circle cx="148.0" cy="177.0" r="5" stroke="black" stroke-width="2" fill="lime"/>
  <circle cx="161.0" cy="173.0" r="5" stroke="black" stroke-width="2" fill="lime"/>
  <circle cx="175.0" cy="180.0" r="5" stroke="black" stroke-width="2" fill="lime"/>
  <circle cx="186.0" cy="196.0" r="5" stroke="black" stroke-width="2" fill="lime"/>
  <circle cx="176.0" cy="214.0" r="5" stroke="black" stroke-width="2" fill="lime"/>
  <circle cx="162.0" cy="223.0" r="5" stroke="black" stroke-width="2" fill="lime"/>
  <circle cx="149.0" cy="224.0" r="5" stroke="black" stroke-width="2" fill="lime"/>
  <circle cx="135.0" cy="223.0" r="5" stroke="black" stroke-width="2" fill="lime"/>
  <circle cx="121.0" cy="216.0" r="5" stroke="black" stroke-width="2" fill="lime"/>
  <circle cx="118.0" cy="196.0" r="5" stroke="black" stroke-width="2" fill="lime"/>
  <circle cx="137.0" cy="188.0" r="5" stroke="black" stroke-width="2" fill="lime"/>
  <circle cx="149.0" cy="189.0" r="5" stroke="black" stroke-width="2" fill="lime"/>
  <circle cx="161.0" cy="187.0" r="5" stroke="black" stroke-width="2" fill="lime"/>
  <circle cx="179.0" cy="196.0" r="5" stroke="black" stroke-width="2" fill="lime"/>
  <circle cx="161.0" cy="203.0" r="5" stroke="black" stroke-width="2" fill="lime"/>
  <circle cx="148.0" cy="205.0" r="5" stroke="black" stroke-width="2" fill="lime"/>
  <circle cx="136.0" cy="204.0" r="5" stroke="black" stroke-width="2" fill="lime"/>
</svg>
